# File created by Blade
# Date/Time:  Wed Apr 08 17:35:20 2015
#---------------------------------------------------------
:version 1.10
:name HOM
:units
  mass 1.0
  length 1.000000
  angle deg
:documentation
     Acclaim Skeleton File
:root
   axis xyz
   order TX TY TZ RX RY RZ
   position 0.000000 0.000000 0.000000
   orientation 0 0 0
:bonedata
   begin
      id 1
      name Spine_dum
      direction 0.000000 1.000000 0.000000
      length 5.893853
      axis 0.0 0.0 0.0 xyz
   end
   begin
      id 2
      name LeftUpLeg_dum
      direction 1.000000 0.000000 0.000000
      length 3.697939
      axis 0.0 0.0 0.0 xyz
   end
   begin
      id 3
      name RightUpLeg_dum
      direction -1.000000 0.000000 0.000000
      length 3.697939
      axis 0.0 0.0 0.0 xyz
   end
   begin
      id 4
      name Spine
      direction 0.000000 1.000000 0.000000
      length 0.000000
      axis 0.0 0.0 0.0 xyz
      dof rx ry rz
   end
   begin
      id 5
      name Spine_dum1
      direction 0.000000 1.000000 0.000000
      length 16.447146
      axis 0.0 0.0 0.0 xyz
   end
   begin
      id 6
      name Spine_dum2
      direction 0.000000 1.000000 0.000000
      length 10.900383
      axis 0.0 0.0 0.0 xyz
   end
   begin
      id 7
      name Spine_dum3
      direction 0.000000 1.000000 0.000000
      length 10.900383
      axis 0.0 0.0 0.0 xyz
   end
   begin
      id 8
      name Head
      direction 0.000000 1.000000 0.000000
      length 4.527550
      axis 0.0 0.0 0.0 xyz
      dof rx ry rz
   end
   begin
      id 9
      name LeftShoulder
      direction 1.000000 0.000000 0.000000
      length 8.219464
      axis 0.0 0.0 -90.0 xyz
      dof rx ry rz
   end
   begin
      id 10
      name LeftArm
      direction 1.000000 0.000000 0.000000
      length 11.094937
      axis 0.0 0.0 -90.0 xyz
      dof rx ry rz
   end
   begin
      id 11
      name LeftForeArm
      direction 1.000000 0.000000 0.000000
      length 9.103875
      axis 0.0 0.0 -90.0 xyz
      dof ry rz rx
   end
   begin
      id 12
      name LeftHand
      direction 0.000000 0.000000 0.000000
      length 0.000000
      axis 0.0 0.0 -90.0 xyz
      dof rx ry rz
   end
   begin
      id 13
      name LeftHand_dum1
      direction 0.000000 0.000000 0.000000
      length 0.000000
      axis 0.0 0.0 -90.0 xyz
   end
   begin
      id 14
      name LeftHand_dum2
      direction 1.000000 0.000000 0.000000
      length 3.937000
      axis 0.0 0.0 -90.0 xyz
   end
   begin
      id 15
      name LeftHandThumb1
      direction 0.000000 0.000000 1.000000
      length 3.937000
      axis 0.0 0.0 -90.0 xyz
      dof rx rz ry
   end
   begin
      id 16
      name RightShoulder
      direction -1.000000 0.000000 0.000000
      length 8.219464
      axis 0.0 0.0 90.0 xyz
      dof rx ry rz
   end
   begin
      id 17
      name RightArm
      direction -1.000000 0.000000 0.000000
      length 11.094937
      axis 0.0 0.0 90.0 xyz
      dof rx ry rz
   end
   begin
      id 18
      name RightForeArm
      direction -1.000000 0.000000 0.000000
      length 9.103875
      axis 0.0 0.0 90.0 xyz
      dof ry rz rx
   end
   begin
      id 19
      name RightHand
      direction 0.000000 0.000000 0.000000
      length 0.000000
      axis 0.0 0.0 90.0 xyz
      dof rx ry rz
   end
   begin
      id 20
      name RightHand_dum1
      direction 0.000000 0.000000 0.000000
      length 0.000000
      axis 0.0 0.0 90.0 xyz
   end
   begin
      id 21
      name RightHand_dum2
      direction -1.000000 0.000000 0.000000
      length 3.937000
      axis 0.0 0.0 90.0 xyz
   end
   begin
      id 22
      name RightHandThumb1
      direction 0.000000 0.000000 1.000000
      length 3.937000
      axis 0.0 0.0 90.0 xyz
      dof rx rz ry
   end
   begin
      id 23
      name LeftUpLeg
      direction 0.000000 -1.000000 0.000000
      length 16.181467
      axis 0.0 0.0 0.0 xyz
      dof rx ry rz
   end
   begin
      id 24
      name LeftLeg
      direction 0.000000 -1.000000 0.000000
      length 16.501392
      axis 0.0 0.0 0.0 xyz
      dof rx ry rz
   end
   begin
      id 25
      name LeftFoot
      direction 0.000000 -0.258819 0.965926
      length 6.408245
      axis 15.0 0.0 0.0 xyz
      dof rx ry rz
   end
   begin
      id 26
      name LeftToeBase
      direction 0.000000 0.000000 1.000000
      length 2.952750
      axis 0.0 0.0 0.0 xyz
      dof rx ry rz
   end
   begin
      id 27
      name RightUpLeg
      direction 0.000000 -1.000000 0.000000
      length 16.181467
      axis 0.0 0.0 0.0 xyz
      dof rx ry rz
   end
   begin
      id 28
      name RightLeg
      direction 0.000000 -1.000000 0.000000
      length 16.501392
      axis 0.0 0.0 0.0 xyz
      dof rx ry rz
   end
   begin
      id 29
      name RightFoot
      direction 0.000000 -0.258819 0.965926
      length 6.408245
      axis 15.0 0.0 0.0 xyz
      dof rx ry rz
   end
   begin
      id 30
      name RightToeBase
      direction 0.000000 0.000000 1.000000
      length 2.952750
      axis 0.0 0.0 0.0 xyz
      dof rx ry rz
   end
:hierarchy
   begin
      root Spine_dum LeftUpLeg_dum RightUpLeg_dum
      Spine_dum Spine
      LeftUpLeg_dum LeftUpLeg
      RightUpLeg_dum RightUpLeg
      Spine Spine_dum1 Spine_dum2 Spine_dum3
      Spine_dum1 Head
      Spine_dum2 LeftShoulder
      Spine_dum3 RightShoulder
      LeftShoulder LeftArm
      LeftArm LeftForeArm
      LeftForeArm LeftHand
      LeftHand LeftHand_dum1 LeftHand_dum2
      LeftHand_dum1 LeftHandThumb1
      RightShoulder RightArm
      RightArm RightForeArm
      RightForeArm RightHand
      RightHand RightHand_dum1 RightHand_dum2
      RightHand_dum1 RightHandThumb1
      LeftUpLeg LeftLeg
      LeftLeg LeftFoot
      LeftFoot LeftToeBase
      RightUpLeg RightLeg
      RightLeg RightFoot
      RightFoot RightToeBase
   end

# File created by Blade
# Date/Time:  Wed Apr 08 17:35:25 2015
# Frame Rate: 120.000 fps
#------------------------------------------------------
:FULLY-SPECIFIED
:DEGREES
87
root 8.767214 36.447649 -1.809065 -90.068381 -86.892113 112.645678
Spine -16.825540 1.064871 -2.236268
Head 6.838619 12.916961 -0.434869
LeftShoulder -5.269457 11.185447 29.347638
LeftArm 14.085618 -37.515783 -39.021437
LeftForeArm 17.926314 -0.000000 8.951688
LeftHand -10.438325 -0.000000 -9.016256
LeftHandThumb1 -26.253704 0.000000 33.147579
RightShoulder -23.338508 -40.216351 -14.892430
RightArm 49.290919 49.012187 54.343356
RightForeArm 5.629163 -0.000000 6.330105
RightHand -0.726062 -0.000000 11.501466
RightHandThumb1 -24.326973 -0.000000 -32.862282
LeftUpLeg -37.538470 16.353370 -3.312117
LeftLeg 30.779528 -0.000000 -0.000000
LeftFoot -7.081208 7.471543 -11.448141
LeftToeBase -7.528877 -0.000000 0.000000
RightUpLeg -24.847394 -5.569061 -5.463974
RightLeg 10.205279 -0.000000 -0.000000
RightFoot -12.427517 -9.431659 19.803113
RightToeBase 11.235028 -0.000000 -0.000000
88
root 8.779293 36.446992 -1.797487 -88.736928 -86.849953 111.320602
Spine -16.769581 1.164089 -2.255358
Head 6.871974 12.960115 -0.626038
LeftShoulder -5.293780 11.340724 29.228827
LeftArm 14.150048 -36.996492 -39.421773
LeftForeArm 17.896981 0.000000 9.745146
LeftHand -10.383340 -0.000000 -8.893895
LeftHandThumb1 -26.253704 0.000000 33.147579
RightShoulder -23.338852 -40.266779 -14.876644
RightArm 49.303109 48.703242 54.565910
RightForeArm 5.635061 0.000000 6.881339
RightHand -0.746039 -0.000000 11.361493
RightHandThumb1 -24.326973 -0.000000 -32.862282
LeftUpLeg -37.834656 16.385490 -3.655952
LeftLeg 31.212222 -0.000000 -0.000000
LeftFoot -7.748756 7.401746 -11.430508
LeftToeBase -7.602148 -0.000000 0.000000
RightUpLeg -24.871411 -5.576746 -5.551151
RightLeg 10.227621 -0.000000 -0.000000
RightFoot -12.464852 -9.481870 19.857194
RightToeBase 11.207152 -0.000000 -0.000000
89
root 8.787693 36.448077 -1.781085 -87.333038 -86.794210 109.922766
Spine -16.721359 1.243448 -2.298430
Head 6.898747 13.025403 -0.763916
LeftShoulder -5.349688 11.499039 29.084684
LeftArm 14.238662 -36.462263 -39.819254
LeftForeArm 17.861467 -0.000000 10.557469
LeftHand -10.504639 -0.000000 -8.827720
LeftHandThumb1 -26.253704 0.000000 33.147579
RightShoulder -23.370001 -40.352122 -14.775216
RightArm 49.388872 48.432311 54.834225
RightForeArm 5.590024 -0.000000 7.468335
RightHand -0.768810 -0.000000 11.020732
RightHandThumb1 -24.326973 -0.000000 -32.862282
LeftUpLeg -38.071862 16.411981 -4.029704
LeftLeg 31.543420 -0.000000 -0.000000
LeftFoot -8.323496 7.283606 -11.650521
LeftToeBase -7.691236 -0.000000 0.000000
RightUpLeg -24.889722 -5.592571 -5.654577
RightLeg 10.253286 -0.000000 -0.000000
RightFoot -12.515234 -9.552168 19.913539
RightToeBase 11.251728 -0.000000 -0.000000
90
root 8.792817 36.449903 -1.761511 -86.261247 -86.731596 108.857231
Spine -16.693769 1.333484 -2.358785
Head 6.943670 13.060404 -0.859990
LeftShoulder -5.430329 11.705767 28.932494
LeftArm 14.381039 -35.881248 -40.236821
LeftForeArm 17.847755 -0.000000 11.393891
LeftHand -10.628392 0.000000 -8.590327
LeftHandThumb1 -26.253704 0.000000 33.147579
RightShoulder -23.357534 -40.484927 -14.692286
RightArm 49.409665 48.133623 55.091658
RightForeArm 5.655689 -0.000000 8.104144
RightHand -0.655720 -0.000000 10.872963
RightHandThumb1 -24.326973 -0.000000 -32.862282
LeftUpLeg -38.252861 16.446620 -4.423407
LeftLeg 31.787751 -0.000000 -0.000000
LeftFoot -8.891081 7.135380 -11.969477
LeftToeBase -7.636043 -0.000000 0.000000
RightUpLeg -24.901010 -5.614157 -5.758708
RightLeg 10.267982 -0.000000 -0.000000
RightFoot -12.557069 -9.627747 19.970305
RightToeBase 11.257288 -0.000000 -0.000000
91
root 8.793745 36.452813 -1.738305 -84.831473 -86.659703 107.441476
Spine -16.687004 1.396981 -2.446752
Head 7.003924 13.095600 -0.936912
LeftShoulder -5.397785 11.756866 28.824645
LeftArm 14.178540 -35.362324 -40.532711
LeftForeArm 18.070163 -0.000000 12.361978
LeftHand -10.519438 -0.000000 -8.726794
LeftHandThumb1 -26.253704 0.000000 33.147579
RightShoulder -23.429914 -40.630902 -14.490499
RightArm 49.571729 47.864343 55.424706
RightForeArm 5.579954 -0.000000 8.749466
RightHand -0.707486 -0.000000 10.448302
RightHandThumb1 -24.326973 -0.000000 -32.862282
LeftUpLeg -38.403702 16.487419 -4.863927
LeftLeg 31.958191 -0.000000 -0.000000
LeftFoot -9.399147 7.021184 -12.213104
LeftToeBase -7.600617 -0.000000 0.000000
RightUpLeg -24.901578 -5.669265 -5.874401
RightLeg 10.270759 -0.000000 -0.000000
RightFoot -12.579341 -9.693007 20.012034
RightToeBase 11.224452 -0.000000 -0.000000
92
root 8.792831 36.455563 -1.714082 -83.278263 -86.608623 105.913520
Spine -16.717958 1.431524 -2.499011
Head 7.093149 13.110694 -0.975002
LeftShoulder -5.465022 11.994634 28.621079
LeftArm 14.248892 -34.863248 -40.908373
LeftForeArm 18.087769 -0.000000 13.326324
LeftHand -10.552446 -0.000000 -8.718512
LeftHandThumb1 -26.253704 0.000000 33.147579
RightShoulder -23.470156 -40.787719 -14.322214
RightArm 49.685665 47.542385 55.716693
RightForeArm 5.539781 -0.000000 9.437917
RightHand -0.602098 -0.000000 10.139106
RightHandThumb1 -24.326973 -0.000000 -32.862282
LeftUpLeg -38.515111 16.522532 -5.296341
LeftLeg 32.037618 -0.000000 -0.000000
LeftFoot -9.851338 6.872555 -12.449139
LeftToeBase -7.864316 -0.000000 0.000000
RightUpLeg -24.901694 -5.728488 -5.967058
RightLeg 10.260673 -0.000000 -0.000000
RightFoot -12.606517 -9.774899 20.037615
RightToeBase 11.272820 -0.000000 -0.000000
93
root 8.789552 36.459939 -1.685426 -81.476936 -86.555091 104.164515
Spine -16.790280 1.476857 -2.576410
Head 7.179097 13.109224 -0.985500
LeftShoulder -5.486218 12.148417 28.464532
LeftArm 14.193555 -34.344617 -41.299656
LeftForeArm 18.289003 -0.000000 14.461960
LeftHand -10.749376 -0.000000 -8.761877
LeftHandThumb1 -26.253704 0.000000 33.147579
RightShoulder -23.560862 -40.890084 -14.101392
RightArm 49.658931 47.146195 55.870405
RightForeArm 5.599326 -0.000000 10.184122
RightHand -0.531513 -0.000000 9.776333
RightHandThumb1 -24.326973 -0.000000 -32.862282
LeftUpLeg -38.611640 16.527595 -5.741885
LeftLeg 32.042773 -0.000000 -0.000000
LeftFoot -10.269941 6.706138 -12.686567
LeftToeBase -7.925672 -0.000000 0.000000
RightUpLeg -24.914542 -5.814983 -6.060075
RightLeg 10.235905 -0.000000 -0.000000
RightFoot -12.615098 -9.853399 20.054838
RightToeBase 11.288237 -0.000000 -0.000000
94
root 8.782249 36.464454 -1.653763 -79.377136 -86.523048 102.132098
Spine -16.915253 1.480194 -2.602426
Head 7.313632 13.121310 -1.022853
LeftShoulder -5.556928 12.382968 28.258419
LeftArm 14.207180 -33.771254 -41.714550
LeftForeArm 18.359180 -0.000000 15.593080
LeftHand -10.805204 -0.000000 -8.636801
LeftHandThumb1 -26.253704 0.000000 33.147579
RightShoulder -23.568895 -40.842069 -14.025025
RightArm 49.466618 46.611770 55.917758
RightForeArm 5.520175 -0.000000 10.945940
RightHand -0.619513 0.000000 9.492387
RightHandThumb1 -24.326973 -0.000000 -32.862282
LeftUpLeg -38.688991 16.535114 -6.190001
LeftLeg 31.979457 -0.000000 -0.000000
LeftFoot -10.638403 6.597084 -12.910936
LeftToeBase -7.784416 -0.000000 0.000000
RightUpLeg -24.931669 -5.950547 -6.118580
RightLeg 10.199488 -0.000000 -0.000000
RightFoot -12.602041 -9.887891 20.079566
RightToeBase 11.305655 -0.000000 -0.000000
95
root 8.774187 36.467651 -1.619916 -77.464178 -86.497863 100.293069
Spine -17.047831 1.482321 -2.638889
Head 7.425888 13.141093 -1.015571
LeftShoulder -5.597158 12.630593 28.112637
LeftArm 14.111115 -33.233287 -42.202791
LeftForeArm 18.428172 -0.000000 16.939008
LeftHand -11.006409 0.000000 -8.589193
LeftHandThumb1 -26.253704 0.000000 33.147579
RightShoulder -23.633333 -41.026110 -13.779438
RightArm 49.499657 46.267035 56.142874
RightForeArm 5.364128 -0.000000 11.771437
RightHand -0.631287 -0.000000 9.354903
RightHandThumb1 -24.326973 -0.000000 -32.862282
LeftUpLeg -38.720244 16.547596 -6.633926
LeftLeg 31.813141 -0.000000 -0.000000
LeftFoot -10.964603 6.518301 -13.145510
LeftToeBase -7.636977 -0.000000 0.000000
RightUpLeg -24.957054 -6.052823 -6.176459
RightLeg 10.167432 -0.000000 -0.000000
RightFoot -12.581606 -9.934970 20.082994
RightToeBase 11.287399 -0.000000 -0.000000
96
root 8.763686 36.469204 -1.580796 -75.426296 -86.472668 98.361238
Spine -17.217436 1.470165 -2.662839
Head 7.490158 13.162137 -1.016388
LeftShoulder -5.661198 12.705585 27.933792
LeftArm 13.835413 -32.578998 -42.561766
LeftForeArm 18.474984 -0.000000 18.336162
LeftHand -10.974485 -0.000000 -8.692198
LeftHandThumb1 -26.253704 0.000000 33.147579
RightShoulder -23.781333 -41.214027 -13.470646
RightArm 49.611396 45.910113 56.399938
RightForeArm 5.133531 -0.000000 12.648051
RightHand -0.521132 0.000000 9.061652
RightHandThumb1 -24.326973 -0.000000 -32.862282
LeftUpLeg -38.745830 16.539615 -7.090668
LeftLeg 31.577133 -0.000000 -0.000000
LeftFoot -11.220388 6.476150 -13.358095
LeftToeBase -7.594789 -0.000000 0.000000
RightUpLeg -25.028442 -6.220832 -6.221680
RightLeg 10.175095 -0.000000 -0.000000
RightFoot -12.563947 -9.911429 20.101494
RightToeBase 11.265175 -0.000000 -0.000000
97
root 8.750468 36.470040 -1.540418 -73.582643 -86.467089 96.611672
Spine -17.394419 1.495124 -2.696100
Head 7.587732 13.147261 -0.943080
LeftShoulder -5.668026 12.975034 27.830066
LeftArm 13.692289 -32.324799 -43.215169
LeftForeArm 18.611869 -0.000000 19.869526
LeftHand -10.918274 0.000000 -8.874450
LeftHandThumb1 -26.253704 0.000000 33.147579
RightShoulder -23.953433 -41.407750 -13.126514
RightArm 49.726159 45.559193 56.684307
RightForeArm 4.874771 0.000000 13.526699
RightHand -0.528169 -0.000000 8.956288
RightHandThumb1 -24.326973 -0.000000 -32.862282
LeftUpLeg -38.723183 16.528987 -7.519692
LeftLeg 31.276441 -0.000000 -0.000000
LeftFoot -11.444152 6.496058 -13.529914
LeftToeBase -7.501730 -0.000000 0.000000
RightUpLeg -25.089906 -6.339565 -6.259157
RightLeg 10.193955 -0.000000 -0.000000
RightFoot -12.559816 -9.956999 20.114211
RightToeBase 11.234233 -0.000000 -0.000000
98
root 8.736421 36.468762 -1.498655 -71.173805 -86.482046 94.300875
Spine -17.585615 1.467511 -2.694455
Head 7.714584 13.167472 -0.891675
LeftShoulder -5.765243 13.246361 27.667051
LeftArm 13.656112 -32.102457 -43.873179
LeftForeArm 18.754459 0.000000 21.343208
LeftHand -10.735019 -0.000000 -9.143269
LeftHandThumb1 -26.253704 0.000000 33.147579
RightShoulder -24.106655 -41.578096 -12.795743
RightArm 49.787165 45.163129 56.932644
RightForeArm 4.654519 -0.000000 14.488320
RightHand -0.667179 -0.000000 8.773332
RightHandThumb1 -24.326973 -0.000000 -32.862282
LeftUpLeg -38.670344 16.515932 -7.924098
LeftLeg 30.888513 -0.000000 -0.000000
LeftFoot -11.528706 6.500357 -13.679504
LeftToeBase -7.561520 -0.000000 0.000000
RightUpLeg -25.158867 -6.444660 -6.280657
RightLeg 10.238603 -0.000000 -0.000000
RightFoot -12.593331 -10.020260 20.197829
RightToeBase 11.215590 -0.000000 -0.000000
99
root 8.720173 36.465387 -1.454381 -68.534738 -86.495982 91.767628
Spine -17.785905 1.431378 -2.687892
Head 7.775982 13.149817 -0.820308
LeftShoulder -5.878843 13.520617 27.461411
LeftArm 13.667343 -32.216501 -44.650154
LeftForeArm 19.279885 -0.000000 22.918303
LeftHand -10.586682 0.000000 -9.574360
LeftHandThumb1 -26.253704 0.000000 33.147579
RightShoulder -24.330161 -41.790560 -12.416921
RightArm 49.875663 44.720148 57.189614
RightForeArm 4.354533 -0.000000 15.473966
RightHand -0.745914 0.000000 8.505117
RightHandThumb1 -24.326973 -0.000000 -32.862282
LeftUpLeg -38.601629 16.504176 -8.330239
LeftLeg 30.431936 -0.000000 -0.000000
LeftFoot -11.514443 6.510858 -13.898985
LeftToeBase -7.541171 -0.000000 0.000000
RightUpLeg -25.244301 -6.566395 -6.297716
RightLeg 10.314370 -0.000000 -0.000000
RightFoot -12.644449 -10.068479 20.274587
RightToeBase 11.197401 -0.000000 -0.000000
